<?xml version="1.0" encoding="iso-8859-1"?>
<!-- Uploaded to: SVG Repo, www.svgrepo.com, Generator: SVG Repo Mixer Tools -->
<svg version="1.1" id="Layer_1" xmlns="http://www.w3.org/2000/svg" xmlns:xlink="http://www.w3.org/1999/xlink" 
	 viewBox="0 0 511.999 511.999" xml:space="preserve">
<path style="fill:#FBA218;" d="M232.138,480c0-13.255,10.746-24,24-24c13.255,0,24,10.746,24,24"/>
<g>
	<path style="fill:#F15A24;" d="M336.139,504H180.138c-6.628,0-12-5.373-12-12l0,0c0-6.628,5.373-12,12-12h155.999
		c6.628,0,12,5.373,12,12l0,0C348.138,498.627,342.765,504,336.139,504z"/>
	<path style="fill:#F15A24;" d="M359.363,296c0,57.438-45.926,104-103.363,104s-103.363-46.563-103.363-104v-56.151h206.727V296z"/>
</g>
<circle style="fill:#FFFFFF;" cx="256.143" cy="327.996" r="16"/>
<path style="fill:#FBA218;" d="M207.972,296v-56.151h-55.336V296c0,57.438,46.313,104,103.751,104
	c9.715,0,18.872-1.431,27.792-3.924C240.362,383.838,207.972,343.722,207.972,296z"/>
<rect x="152.142" y="240.002" style="fill:#FFFFFF;" width="208.001" height="24"/>
<rect x="152.142" y="240.002" style="fill:#E6E6E6;" width="56" height="24"/>
<path style="fill:#84DCCF;" d="M160.138,240V111.111c0-56.947,42.98-103.111,96-103.111l0,0c53.019,0,96,46.165,96,103.111V240"/>
<path style="fill:#027EA8;" d="M280.055,11.651C271.787,9.33,264.028,8,255.019,8c-53.019,0-95.075,42.98-95.075,96v135.849h48.027
	V103.999C207.972,59.99,239.667,22.986,280.055,11.651z"/>
<rect x="192.308" y="256.55" width="127.377" height="15.661"/>
<path d="M256.138,352.001c-13.234,0-23.999-10.765-23.999-24c0-13.234,10.765-23.999,23.999-23.999c13.234,0,24,10.765,24,23.999
	C280.137,341.234,269.372,352.001,256.138,352.001z M256.138,320c-4.411,0-8,3.59-8,8c0,4.412,3.59,8.001,8,8.001
	c4.411,0,8.001-3.59,8.001-8.001C264.138,323.589,260.55,320,256.138,320z"/>
<g>
	<rect x="183.955" y="320.239" style="fill:#FFFFFF;" width="15.661" height="15.661"/>
	<rect x="207.969" y="320.239" style="fill:#FFFFFF;" width="15.661" height="15.661"/>
	<rect x="288.363" y="320.239" style="fill:#FFFFFF;" width="16.705" height="15.661"/>
	<rect x="312.376" y="320.239" style="fill:#FFFFFF;" width="15.661" height="15.661"/>
</g>
<path d="M144.283,232.541V296c0,58.851,45.649,107.229,103.363,111.519v24.44h15.661v-24.374
	c58.206-3.782,104.408-52.38,104.408-111.586V232.54H144.283V232.541z M255.999,392.169c-52.965,0-96.055-43.141-96.055-96.17
	v-23.784h16.705v-15.661h-16.705v-8.353h192.11v8.353h-15.661v15.661h15.661V296C352.054,349.028,308.964,392.169,255.999,392.169z"
	/>
<path d="M336.139,472h-0.789v-7.676h-15.661V472h-7.309v-14.985h-15.661V472h-9.581c-2.958-11.559-12.194-20.541-23.829-23.2v-8.489
	h-15.661v8.82c-11.01,3.016-19.663,11.751-22.508,22.869h-45.001c-11.029,0-20,8.972-20,19.999c0,11.028,8.972,19.999,20,19.999
	h156.001c11.029,0,19.999-8.972,19.999-19.999C356.138,480.972,347.166,472,336.139,472z M256.138,463.985
	c5.826,0,10.92,3.344,13.718,8.015H242.42C245.218,467.33,250.311,463.985,256.138,463.985z M336.139,496H180.138
	c-2.206,0-4-1.795-4-4c0-2.205,1.795-4,4-4h156.001c2.205,0,4,1.795,4,4C340.138,494.205,338.344,496,336.139,496z"/>
<rect x="176.647" y="207.479" width="15.661" height="15.661"/>
<rect x="199.616" y="207.479" width="16.705" height="15.661"/>
<rect x="223.63" y="207.479" width="16.705" height="15.661"/>
<rect x="248.688" y="207.479" width="14.617" height="15.661"/>
<rect x="272.702" y="207.479" width="15.661" height="15.661"/>
<rect x="295.671" y="207.479" width="16.705" height="15.661"/>
<rect x="319.685" y="207.479" width="16.705" height="15.661"/>
<rect x="176.647" y="176.156" width="15.661" height="15.661"/>
<rect x="199.616" y="176.156" width="16.705" height="15.661"/>
<rect x="223.63" y="176.156" width="16.705" height="15.661"/>
<rect x="248.688" y="176.156" width="14.617" height="15.661"/>
<rect x="272.702" y="176.156" width="15.661" height="15.661"/>
<rect x="295.671" y="176.156" width="16.705" height="15.661"/>
<rect x="319.685" y="176.156" width="16.705" height="15.661"/>
<rect x="176.647" y="143.79" width="15.661" height="15.661"/>
<rect x="199.616" y="143.79" width="16.705" height="15.661"/>
<rect x="223.63" y="143.79" width="16.705" height="15.661"/>
<rect x="248.688" y="143.79" width="14.617" height="15.661"/>
<rect x="272.702" y="143.79" width="15.661" height="15.661"/>
<rect x="295.671" y="143.79" width="16.705" height="15.661"/>
<rect x="319.685" y="143.79" width="16.705" height="15.661"/>
<rect x="176.647" y="111.424" width="15.661" height="15.661"/>
<rect x="199.616" y="111.424" width="16.705" height="15.661"/>
<rect x="223.63" y="111.424" width="16.705" height="15.661"/>
<rect x="248.688" y="111.424" width="14.617" height="15.661"/>
<rect x="272.702" y="111.424" width="15.661" height="15.661"/>
<rect x="295.671" y="111.424" width="16.705" height="15.661"/>
<rect x="319.685" y="111.424" width="16.705" height="15.661"/>
<rect x="176.647" y="80.101" width="15.661" height="15.661"/>
<rect x="199.616" y="80.101" width="16.705" height="15.661"/>
<rect x="223.63" y="80.101" width="16.705" height="15.661"/>
<rect x="248.688" y="80.101" width="14.617" height="15.661"/>
<rect x="272.702" y="80.101" width="15.661" height="15.661"/>
<rect x="295.671" y="80.101" width="16.705" height="15.661"/>
<rect x="319.685" y="80.101" width="16.705" height="15.661"/>
<rect x="199.616" y="47.739" width="16.705" height="15.661"/>
<rect x="223.63" y="47.739" width="16.705" height="15.661"/>
<rect x="248.688" y="47.739" width="14.617" height="15.661"/>
<rect x="272.702" y="47.739" width="15.661" height="15.661"/>
<rect x="295.671" y="47.739" width="16.705" height="15.661"/>
<path d="M256.138,0c-57.346,0-103.999,46.655-103.999,103.999V224h15.999V103.999c0-14.639,3.614-28.443,9.964-40.6h14.209V47.738
	h-3.777c5.331-6.396,11.545-12.032,18.462-16.705h9.33V25.56c2.376-1.211,4.814-2.317,7.309-3.312v8.785h16.705V17.449
	c2.743-0.499,5.528-0.873,8.353-1.111v14.696h14.617V16.316c3.182,0.258,6.318,0.68,9.397,1.27v13.449h15.661v-8.896
	c2.494,0.986,4.931,2.079,7.309,3.279v5.616h9.608c6.917,4.673,13.13,10.309,18.462,16.705h-4.056V63.4h14.487
	c6.351,12.157,9.964,25.961,9.964,40.6v120.001h15.999V103.999C360.139,46.655,313.484,0,256.138,0z"/>
</svg>